<svg width="271" height="56" viewBox="0 0 271 56" fill="none" xmlns="http://www.w3.org/2000/svg">
<path d="M4.1665 51.8334L25.1401 30.8598M37.3106 30.2772C38.3519 30.2772 39.3458 29.8108 39.9554 28.9666C42.9842 24.7726 45.0406 19.8299 45.7942 14.469C46.1477 11.9547 44.0436 9.85216 41.5294 10.2057C27.1791 12.2236 15.8255 23.5773 13.8076 37.9276C13.4541 40.4419 15.5566 42.5459 18.0709 42.1925C23.4317 41.4389 28.3744 39.3824 32.5684 36.3536C33.4126 35.744 33.879 34.7501 33.879 33.7088C33.879 31.8136 35.4154 30.2772 37.3106 30.2772Z" stroke="white" stroke-width="2" stroke-linecap="round" stroke-linejoin="round"/>
<path d="M73.008 54.896C62.576 54.896 55.664 48.112 55.664 38C55.664 27.888 62.576 21.104 73.008 21.104C81.648 21.104 88.304 26.544 89.712 34.672H82.352C81.328 30.576 77.616 27.888 73.008 27.888C67.184 27.888 63.344 31.92 63.344 38C63.344 44.08 67.184 48.112 73.008 48.112C77.68 48.112 81.456 45.296 82.416 41.008H89.776C88.432 49.328 81.712 54.896 73.008 54.896ZM94.3815 54V10.096H102.062V24.368C104.174 22.384 107.63 21.104 110.766 21.104C119.534 21.104 125.358 26.288 125.358 34.096V54H117.678V34.992C117.678 30.704 114.542 27.888 109.87 27.888C105.198 27.888 102.062 30.704 102.062 34.992V54H94.3815ZM146.617 54.896C136.633 54.896 129.977 48.112 129.977 38C129.977 27.888 136.633 21.104 146.617 21.104C150.393 21.104 154.553 22.832 156.985 25.456V22H164.665V54H156.985V50.544C154.553 53.168 150.393 54.896 146.617 54.896ZM147.385 48.112C153.145 48.112 156.985 44.08 156.985 38C156.985 31.92 153.145 27.888 147.385 27.888C141.561 27.888 137.657 31.92 137.657 38C137.657 44.08 141.561 48.112 147.385 48.112ZM202.855 48.496H208.423V54C207.271 54.512 205.095 54.896 202.983 54.896C196.583 54.896 192.359 51.248 192.359 45.808V28.4H180.967V45.808C180.967 47.408 182.119 48.496 183.783 48.496H187.559V54C186.279 54.512 184.423 54.896 182.951 54.896C177.127 54.896 173.287 51.568 173.287 46.64V28.4H168.167V22H173.287V10.096H180.967V22H192.359V10.096H200.039V22H208.103V28.4H200.039V45.808C200.039 47.408 201.191 48.496 202.855 48.496ZM227.946 54.896C217.514 54.896 210.602 48.112 210.602 38C210.602 27.888 217.514 21.104 227.946 21.104C238.378 21.104 245.29 27.888 245.29 38V39.472L244.65 40.112H218.41C219.114 45.168 222.954 48.496 227.946 48.496C231.722 48.496 235.242 46.32 236.714 43.12H244.522C242.41 50.16 235.754 54.896 227.946 54.896ZM218.922 33.712H236.97C235.498 29.744 232.234 27.504 227.946 27.504C223.658 27.504 220.394 29.744 218.922 33.712ZM249.882 54V22H257.562V25.776C259.226 23.152 262.362 21.36 265.306 21.36C266.458 21.36 267.802 21.616 268.698 22V27.888H266.074C260.954 27.888 257.562 30.768 257.562 35.056V54H249.882Z" fill="white"/>
</svg>
