<svg width="109" height="26" viewBox="0 0 109 26" fill="none" xmlns="http://www.w3.org/2000/svg">
<g clip-path="url(#clip0_106_760)">
<path d="M1.6665 21.3334L10.0559 12.944M14.9242 12.7109C15.3407 12.7109 15.7382 12.5244 15.9821 12.1867C17.1936 10.5091 18.0162 8.532 18.3176 6.38766C18.459 5.38194 17.6174 4.54091 16.6117 4.68234C10.8716 5.4895 6.33011 10.031 5.52295 15.7711C5.38152 16.7768 6.22255 17.6184 7.22827 17.477C9.37259 17.1756 11.3497 16.353 13.0273 15.1415C13.3649 14.8976 13.5515 14.5001 13.5515 14.0836C13.5515 13.3255 14.1661 12.7109 14.9242 12.7109Z" stroke="#1A1A1A" stroke-width="2" stroke-linecap="round" stroke-linejoin="round"/>
</g>
<path d="M31.128 22.836C27.216 22.836 24.624 20.292 24.624 16.5C24.624 12.708 27.216 10.164 31.128 10.164C34.368 10.164 36.864 12.204 37.392 15.252H34.632C34.248 13.716 32.856 12.708 31.128 12.708C28.944 12.708 27.504 14.22 27.504 16.5C27.504 18.78 28.944 20.292 31.128 20.292C32.88 20.292 34.296 19.236 34.656 17.628H37.416C36.912 20.748 34.392 22.836 31.128 22.836ZM39.1431 22.5V6.036H42.0231V11.388C42.8151 10.644 44.1111 10.164 45.2871 10.164C48.5751 10.164 50.7591 12.108 50.7591 15.036V22.5H47.8791V15.372C47.8791 13.764 46.7031 12.708 44.9511 12.708C43.1991 12.708 42.0231 13.764 42.0231 15.372V22.5H39.1431ZM58.7312 22.836C54.9872 22.836 52.4912 20.292 52.4912 16.5C52.4912 12.708 54.9872 10.164 58.7312 10.164C60.1472 10.164 61.7072 10.812 62.6192 11.796V10.5H65.4992V22.5H62.6192V21.204C61.7072 22.188 60.1472 22.836 58.7312 22.836ZM59.0192 20.292C61.1792 20.292 62.6192 18.78 62.6192 16.5C62.6192 14.22 61.1792 12.708 59.0192 12.708C56.8352 12.708 55.3712 14.22 55.3712 16.5C55.3712 18.78 56.8352 20.292 59.0192 20.292ZM79.8206 20.436H81.9086V22.5C81.4766 22.692 80.6606 22.836 79.8686 22.836C77.4686 22.836 75.8846 21.468 75.8846 19.428V12.9H71.6126V19.428C71.6126 20.028 72.0446 20.436 72.6686 20.436H74.0846V22.5C73.6046 22.692 72.9086 22.836 72.3566 22.836C70.1726 22.836 68.7326 21.588 68.7326 19.74V12.9H66.8126V10.5H68.7326V6.036H71.6126V10.5H75.8846V6.036H78.7646V10.5H81.7886V12.9H78.7646V19.428C78.7646 20.028 79.1966 20.436 79.8206 20.436ZM89.2296 22.836C85.3176 22.836 82.7256 20.292 82.7256 16.5C82.7256 12.708 85.3176 10.164 89.2296 10.164C93.1416 10.164 95.7336 12.708 95.7336 16.5V17.052L95.4936 17.292H85.6536C85.9176 19.188 87.3576 20.436 89.2296 20.436C90.6456 20.436 91.9656 19.62 92.5176 18.42H95.4456C94.6536 21.06 92.1576 22.836 89.2296 22.836ZM85.8456 14.892H92.6136C92.0616 13.404 90.8376 12.564 89.2296 12.564C87.6216 12.564 86.3976 13.404 85.8456 14.892ZM97.4556 22.5V10.5H100.336V11.916C100.96 10.932 102.136 10.26 103.24 10.26C103.672 10.26 104.176 10.356 104.512 10.5V12.708H103.528C101.608 12.708 100.336 13.788 100.336 15.396V22.5H97.4556Z" fill="#1A1A1A"/>
<defs>
<clipPath id="clip0_106_760">
<rect width="20" height="20" fill="white" transform="translate(0 3)"/>
</clipPath>
</defs>
</svg>
